# Blender 3.1.0
# www.blender.org
mtllib low_poly_tree_1.mtl
o low_poly_tree_1
o trunk
v -0.018886 0.589913 -0.264436
v 0.161257 0.589913 -0.198870
v 0.257109 0.589913 -0.032850
v 0.223820 0.589913 0.155942
v 0.076966 0.589913 0.279167
v -0.114738 0.589913 0.279166
v -0.261591 0.589913 0.155942
v -0.294880 0.589913 -0.032850
v -0.199028 0.589913 -0.198870
v -0.018886 0.008696 -0.373037
v 0.231064 0.008696 -0.282063
v 0.364060 0.008696 -0.051708
v 0.317871 0.008696 0.210242
v 0.114110 0.008696 0.381218
v -0.151881 0.008696 0.381218
v -0.355642 0.008696 0.210242
v -0.401831 0.008696 -0.051708
v -0.268836 0.008696 -0.282063
v 0.105224 1.041991 0.356805
v 0.016978 1.055194 0.359073
v 0.299416 1.073253 -0.125587
v 0.341181 1.057025 -0.047674
v 0.294011 1.033391 0.196466
v -0.366390 0.987226 -0.045459
v -0.246581 0.994703 -0.255541
v -0.326862 1.002308 0.193626
v 0.216058 1.056403 -0.264179
v -0.018886 1.021652 -0.343341
v -0.142475 1.033656 0.355374
vn -0.0000 -1.0000 -0.0000
vn -0.8530 0.1729 -0.4925
vn -0.3369 0.1729 -0.9255
vn -0.9700 0.1729 0.1710
vn -0.6331 0.1729 0.7545
vn -0.0000 0.1729 0.9849
vn 0.6331 0.1729 0.7545
vn 0.9700 0.1729 0.1710
vn 0.8530 0.1729 -0.4925
vn 0.3369 0.1729 -0.9255
vn 0.3371 -0.1693 -0.9261
vn 0.8535 -0.1693 -0.4928
vn 0.9706 -0.1693 0.1711
vn 0.6335 -0.1693 0.7550
vn -0.0000 -0.1693 0.9856
vn -0.6335 -0.1693 0.7550
vn -0.9706 -0.1693 0.1711
vn -0.3371 -0.1693 -0.9261
vn -0.8535 -0.1693 -0.4928
s 1
usemtl Bark
f 10//1 11//1 12//1 13//1 14//1 15//1 16//1 17//1 18//1
f 17//2 8//2 9//2 18//2
f 18//3 9//3 1//3 10//3
f 16//4 7//4 8//4 17//4
f 15//5 6//5 7//5 16//5
f 14//6 5//6 6//6 15//6
f 13//7 4//7 5//7 14//7
f 12//8 3//8 4//8 13//8
f 11//9 2//9 3//9 12//9
f 10//10 1//10 2//10 11//10
f 27//11 2//11 1//11 28//11
f 22//12 3//12 2//12 27//12 21//12
f 23//13 4//13 3//13 22//13
f 19//14 5//14 4//14 23//14
f 6//15 5//15 19//15 20//15 29//15
f 7//16 6//16 29//16 26//16
f 24//17 8//17 7//17 26//17
f 1//18 9//18 25//18 28//18
f 25//19 9//19 8//19 24//19
o leaves
v 0.015674 4.370670 -0.253986
v 0.019167 5.131337 0.022685
v 0.028745 5.131337 0.026171
v 0.199847 4.370671 -0.186952
v 0.033842 5.131337 0.034998
v 0.292234 4.307343 -0.023413
v 0.032072 5.131337 0.045036
v 0.263809 4.370670 0.175798
v 0.024263 5.131337 0.051588
v 0.113670 4.370670 0.301780
v 0.014070 5.131337 0.051588
v -0.087932 4.307343 0.295584
v 0.006262 5.131337 0.045036
v -0.232462 4.370670 0.175798
v 0.004492 5.131337 0.034998
v -0.266496 4.370670 -0.017217
v 0.009589 5.131337 0.026171
v -0.174109 4.307343 -0.193148
v -0.014588 1.018002 -0.339251
v 0.163622 1.094860 -0.244909
v 0.349717 1.064769 -0.053329
v 0.289138 1.073214 0.132754
v 0.093926 1.051990 0.346691
v -0.134998 1.035479 0.345329
v -0.294360 1.038435 0.166974
v -0.349235 0.956909 -0.063531
v -0.243048 1.019560 -0.210628
v -1.162461 0.849450 -0.150182
v -0.862932 1.450916 -0.094124
v -0.569643 1.387590 -0.618026
v -0.766733 0.786124 -0.851516
v -0.002290 1.450916 -0.816288
v -0.006855 0.849450 -1.119851
v -1.023078 0.849450 0.640299
v -0.759126 1.450916 0.494589
v -0.413802 0.786124 1.150053
v -0.306797 1.387590 0.872648
v 0.394483 0.849450 1.156250
v 0.296607 1.450916 0.878845
v 1.009368 0.849450 0.640300
v 0.754545 1.450916 0.494589
v 1.143143 0.786124 -0.156378
v 0.858351 1.450916 -0.094124
v 0.747414 0.849450 -0.845319
v 0.559453 1.450916 -0.611830
v -0.470645 3.597165 -0.047718
v -0.162981 4.420761 0.010068
v -0.106769 4.357434 -0.103204
v -0.309076 3.533838 -0.343475
v 0.015024 4.420761 -0.139296
v 0.010725 3.597165 -0.451635
v -0.412585 3.597165 0.281558
v -0.141511 4.420761 0.131830
v -0.162062 3.533839 0.490282
v -0.052405 4.357434 0.205109
v 0.177903 3.597165 0.496478
v 0.076845 4.420761 0.211305
v 0.434034 3.597165 0.281558
v 0.171559 4.420761 0.131830
v 0.486486 3.533838 -0.053915
v 0.193029 4.420761 0.010068
v 0.324917 3.597165 -0.337279
v 0.131209 4.420761 -0.097008
v 0.005286 2.747002 -0.671042
v 0.010529 3.649712 -0.315061
v 0.242392 3.649712 -0.230669
v 0.463775 2.747002 -0.504165
v 0.365764 3.649712 -0.016983
v 0.702124 2.683675 -0.087815
v 0.322917 3.649712 0.226012
v 0.623007 2.747002 0.398883
v 0.133901 3.649712 0.384616
v 0.249243 2.747002 0.712509
v -0.118452 3.586386 0.378420
v -0.244281 2.683676 0.706312
v -0.301860 3.649712 0.226012
v -0.612436 2.747002 0.398883
v -0.344706 3.649712 -0.016983
v -0.697161 2.747002 -0.081619
v -0.458813 2.683676 -0.510362
v -0.226943 3.586385 -0.236866
v -0.864248 1.983147 -0.105654
v -0.545192 2.799064 -0.046827
v -0.359524 2.735737 -0.384325
v -0.569569 1.919821 -0.631965
v 0.005569 2.799064 -0.508971
v 0.000399 1.983147 -0.831178
v -0.759959 1.983148 0.485799
v -0.478762 2.799064 0.329916
v -0.305499 1.919821 0.865646
v -0.191317 2.735737 0.569622
v 0.300687 1.983148 0.871843
v 0.196847 2.799064 0.575818
v 0.760756 1.983147 0.485799
v 0.489901 2.799064 0.329917
v 0.859436 1.919821 -0.111850
v 0.556331 2.799064 -0.046827
v 0.564756 1.983148 -0.625769
v 0.365054 2.799064 -0.378129
v -0.003388 1.391362 -0.997131
v 0.001149 2.040821 -0.681816
v 0.474390 2.040822 -0.509570
v 0.669916 1.391363 -0.752068
v 0.726197 2.040821 -0.073428
v 1.022565 1.328036 -0.137744
v 0.638746 2.040822 0.422534
v 0.903752 1.391363 0.574081
v 0.252955 2.040822 0.746250
v 0.354870 1.391363 1.034648
v -0.256267 1.977495 0.740054
v -0.367254 1.328036 1.028452
v -0.636448 2.040822 0.422534
v -0.910528 1.391363 0.574081
v -0.723899 2.040821 -0.073428
v -1.034949 1.391362 -0.131548
v -0.682301 1.328036 -0.758265
v -0.477702 1.977495 -0.515766
vn 0.3238 0.3221 -0.8896
vn 0.8730 0.3022 -0.3827
vn 0.9536 0.2971 0.0477
vn 0.6109 0.3112 0.7280
vn -0.1164 0.2965 0.9479
vn -0.5313 0.3015 0.7917
vn -0.9327 0.3210 0.1645
vn -0.0000 1.0000 -0.0000
vn -0.3809 0.3169 -0.8686
vn -0.7898 0.3166 -0.5253
vn -0.7667 0.4310 -0.4757
vn -0.3356 0.4304 -0.8379
vn -0.8898 0.4285 0.1569
vn -0.5511 0.4230 0.7193
vn -0.0455 0.4187 0.9070
vn 0.5844 0.4163 0.6965
vn 0.9079 0.3960 0.1376
vn 0.8023 0.4025 -0.4408
vn 0.3093 0.4266 -0.8499
vn -0.7838 0.3370 -0.5217
vn -0.3783 0.3367 -0.8623
vn -0.9279 0.3351 0.1636
vn -0.5277 0.3288 0.7832
vn -0.1127 0.3256 0.9388
vn 0.6078 0.3254 0.7244
vn 0.9437 0.3122 0.1093
vn 0.8444 0.3173 -0.4317
vn 0.3224 0.3342 -0.8857
vn 0.3209 0.3458 -0.8817
vn 0.8325 0.3304 -0.4447
vn 0.9366 0.3260 0.1283
vn 0.6047 0.3390 0.7207
vn -0.0735 0.3409 0.9372
vn -0.5534 0.3441 0.7585
vn -0.9230 0.3487 0.1627
vn -0.3579 0.3490 -0.8661
vn -0.7906 0.3500 -0.5024
vn -0.7957 0.3507 -0.4939
vn -0.3486 0.3496 -0.8696
vn -0.9228 0.3491 0.1627
vn -0.5664 0.3446 0.7487
vn -0.0551 0.3408 0.9385
vn 0.6048 0.3385 0.7208
vn 0.9359 0.3243 0.1375
vn 0.8290 0.3293 -0.4520
vn 0.3209 0.3461 -0.8816
vn 0.3114 0.4133 -0.8557
vn 0.8077 0.3910 -0.4412
vn 0.9129 0.3849 0.1357
vn 0.5881 0.4035 0.7009
vn -0.0509 0.4056 0.9126
vn -0.5513 0.4096 0.7268
vn -0.8960 0.4150 0.1580
vn -0.3404 0.4168 -0.8429
vn -0.7708 0.4174 -0.4812
vn 0.1824 -0.8628 0.4715
vn 0.4347 -0.8567 0.2778
vn 0.4511 -0.8889 -0.0795
vn 0.0338 -0.8164 -0.5765
vn 0.3326 -0.8240 -0.4586
vn -0.3049 -0.8804 -0.3633
vn -0.6502 -0.7582 0.0485
vn -0.6189 -0.7661 0.1734
vn -0.1439 -0.9072 0.3954
vn -0.1295 -0.9255 0.3559
vn -0.5359 -0.8196 0.2028
vn -0.5873 -0.8093 -0.0082
vn -0.2691 -0.9081 -0.3207
vn 0.1984 -0.8870 -0.4170
vn 0.1156 -0.8858 -0.4495
vn 0.3987 -0.9144 -0.0703
vn 0.3033 -0.9077 0.2901
vn 0.2296 -0.9091 0.3477
vn 0.2137 -0.9379 0.2733
vn 0.2322 -0.9377 0.2586
vn 0.3356 -0.9401 -0.0592
vn 0.1208 -0.9255 -0.3590
vn 0.1379 -0.9257 -0.3523
vn -0.2263 -0.9360 -0.2697
vn -0.5129 -0.8581 -0.0235
vn -0.4618 -0.8659 0.1920
vn -0.1107 -0.9462 0.3041
vn -0.1302 -0.9247 0.3577
vn -0.5031 -0.8320 0.2339
vn -0.5695 -0.8205 -0.0494
vn -0.2660 -0.9104 -0.3170
vn 0.1072 -0.9038 -0.4144
vn 0.1839 -0.9047 -0.3844
vn 0.3927 -0.9170 -0.0692
vn 0.2232 -0.9201 0.3218
vn 0.2799 -0.9193 0.2765
vn 0.2434 -0.9398 0.2401
vn 0.1938 -0.9402 0.2801
vn 0.3381 -0.9392 -0.0596
vn 0.1572 -0.9309 -0.3297
vn 0.0922 -0.9303 -0.3550
vn -0.2282 -0.9348 -0.2720
vn -0.4989 -0.8656 -0.0432
vn -0.4422 -0.8730 0.2057
vn -0.1133 -0.9435 0.3114
vn -0.0297 -0.9609 0.2753
vn -0.3075 -0.9460 0.1028
vn -0.3166 -0.9485 0.0067
vn -0.1514 -0.9688 -0.1962
vn 0.0759 -0.9599 -0.2697
vn 0.1249 -0.9646 -0.2324
vn 0.1984 -0.9793 0.0404
vn 0.1482 -0.9644 0.2189
vn 0.1879 -0.9758 0.1119
s 1
usemtl Leaves
f 30//20 31//20 32//20 33//20
f 33//21 32//21 34//21 35//21
f 35//22 34//22 36//22 37//22
f 37//23 36//23 38//23 39//23
f 39//24 38//24 40//24 41//24
f 41//25 40//25 42//25 43//25
f 43//26 42//26 44//26 45//26
f 32//27 31//27 46//27 44//27 42//27 40//27 38//27 36//27 34//27
f 47//28 46//28 31//28 30//28
f 45//29 44//29 46//29 47//29
f 57//30 58//30 59//30 60//30
f 60//31 59//31 61//31 62//31
f 63//32 64//32 58//32 57//32
f 65//33 66//33 64//33 63//33
f 67//34 68//34 66//34 65//34
f 69//35 70//35 68//35 67//35
f 71//36 72//36 70//36 69//36
f 73//37 74//37 72//37 71//37
f 62//38 61//38 74//38 73//38
f 75//39 76//39 77//39 78//39
f 78//40 77//40 79//40 80//40
f 81//41 82//41 76//41 75//41
f 83//42 84//42 82//42 81//42
f 85//43 86//43 84//43 83//43
f 87//44 88//44 86//44 85//44
f 89//45 90//45 88//45 87//45
f 91//46 92//46 90//46 89//46
f 80//47 79//47 92//47 91//47
f 93//48 94//48 95//48 96//48
f 96//49 95//49 97//49 98//49
f 98//50 97//50 99//50 100//50
f 100//51 99//51 101//51 102//51
f 102//52 101//52 103//52 104//52
f 104//53 103//53 105//53 106//53
f 106//54 105//54 107//54 108//54
f 109//55 110//55 94//55 93//55
f 108//56 107//56 110//56 109//56
f 111//57 112//57 113//57 114//57
f 114//58 113//58 115//58 116//58
f 117//59 118//59 112//59 111//59
f 119//60 120//60 118//60 117//60
f 121//61 122//61 120//61 119//61
f 123//62 124//62 122//62 121//62
f 125//63 126//63 124//63 123//63
f 127//64 128//64 126//64 125//64
f 116//65 115//65 128//65 127//65
f 129//66 130//66 131//66 132//66
f 132//67 131//67 133//67 134//67
f 134//68 133//68 135//68 136//68
f 136//69 135//69 137//69 138//69
f 138//70 137//70 139//70 140//70
f 140//71 139//71 141//71 142//71
f 142//72 141//72 143//72 144//72
f 145//73 146//73 130//73 129//73
f 144//74 143//74 146//74 145//74
f 76//75 45//75 47//75 77//75
f 77//76 47//76 30//76 79//76
f 82//77 43//77 45//77 76//77
f 84//78 41//78 43//78 82//78
f 86//79 39//79 41//79 84//79
f 88//80 37//80 39//80 86//80
f 90//81 35//81 37//81 88//81
f 92//82 33//82 35//82 90//82
f 79//83 30//83 33//83 92//83
f 94//84 80//84 91//84 95//84
f 95//85 91//85 89//85 97//85
f 97//86 89//86 87//86 99//86
f 99//87 87//87 85//87 101//87
f 101//88 85//88 83//88 103//88
f 103//89 83//89 81//89 105//89
f 105//90 81//90 75//90 107//90
f 110//91 78//91 80//91 94//91
f 107//92 75//92 78//92 110//92
f 112//93 108//93 109//93 113//93
f 113//94 109//94 93//94 115//94
f 118//95 106//95 108//95 112//95
f 120//96 104//96 106//96 118//96
f 122//97 102//97 104//97 120//97
f 124//98 100//98 102//98 122//98
f 126//99 98//99 100//99 124//99
f 128//100 96//100 98//100 126//100
f 115//101 93//101 96//101 128//101
f 130//102 116//102 127//102 131//102
f 131//103 127//103 125//103 133//103
f 133//104 125//104 123//104 135//104
f 135//105 123//105 121//105 137//105
f 137//106 121//106 119//106 139//106
f 139//107 119//107 117//107 141//107
f 141//108 117//108 111//108 143//108
f 146//109 114//109 116//109 130//109
f 143//110 111//110 114//110 146//110
f 58//111 144//111 145//111 59//111
f 59//112 145//112 129//112 61//112
f 64//113 142//113 144//113 58//113
f 66//114 140//114 142//114 64//114
f 68//115 138//115 140//115 66//115
f 70//116 136//116 138//116 68//116
f 72//117 134//117 136//117 70//117
f 74//118 132//118 134//118 72//118
f 61//119 129//119 132//119 74//119
f 48//120 62//120 73//120 49//120
f 49//121 73//121 71//121 50//121
f 50//122 71//122 69//122 51//122
f 51//123 69//123 67//123 52//123
f 52//124 67//124 65//124 53//124
f 53//125 65//125 63//125 54//125
f 54//126 63//126 57//126 55//126
f 56//127 60//127 62//127 48//127
f 55//128 57//128 60//128 56//128
